# MagicaVoxel @ Ephtracy

# group
o 

# material
mtllib gun.mtl
usemtl palette

# normals
vn -1 0 0
vn 1 0 0
vn 0 0 1
vn 0 0 -1
vn 0 -1 0
vn 0 1 0

# texcoords
vt 0.982422 0.5
vt 0.994141 0.5

# verts
v -1.2 0.8 0.1
v -1.2 0.8 -0.2
v -1.2 1 0.1
v -1.2 1 -0.2
v -0.8 1 0.1
v -0.8 1 0
v -0.8 1 -0.1
v -0.8 1 -0.2
v -0.8 1.1 0.1
v -0.8 1.1 0
v -0.8 1.1 -0.1
v -0.8 1.1 -0.2
v 0.2 0.7 0.1
v 0.2 0.7 -0.2
v 0.2 0.8 0.1
v 0.2 0.8 -0.2
v 0.3 0.5 0.1
v 0.3 0.5 -0.2
v 0.3 0.7 0.1
v 0.3 0.7 -0.2
v 0.4 0.4 0.1
v 0.4 0.4 -0.2
v 0.4 0.5 0.1
v 0.4 0.5 -0.2
v 0.5 0.7 0
v 0.5 0.7 -0.1
v 0.5 0.8 0
v 0.5 0.8 -0.1
v 0.6 0.5 0.1
v 0.6 0.5 -0.2
v 0.6 0.7 0
v 0.6 0.7 -0.1
v 0.6 0.8 0.1
v 0.6 0.8 0
v 0.6 0.8 -0.1
v 0.6 0.8 -0.2
v 0.8 0.2 0.1
v 0.8 0.2 -0.2
v 0.8 0.8 0.1
v 0.8 0.8 -0.2
v -0.7 1 0.1
v -0.7 1 0
v -0.7 1 -0.1
v -0.7 1 -0.2
v -0.7 1.1 0.1
v -0.7 1.1 0
v -0.7 1.1 -0.1
v -0.7 1.1 -0.2
v 0.3 0.7 0.1
v 0.3 0.7 -0.2
v 0.3 0.8 0.1
v 0.3 0.8 -0.2
v 0.4 0.5 0.1
v 0.4 0.5 0
v 0.4 0.5 -0.1
v 0.4 0.5 -0.2
v 0.4 0.7 0.1
v 0.4 0.7 0
v 0.4 0.7 -0.1
v 0.4 0.7 -0.2
v 0.5 0.5 0
v 0.5 0.5 -0.1
v 0.5 0.7 0
v 0.5 0.7 -0.1
v 0.6 0.4 0.1
v 0.6 0.4 -0.2
v 0.6 0.5 0.1
v 0.6 0.5 -0.2
v 0.7 0.5 0.1
v 0.7 0.5 -0.2
v 0.7 0.8 0.1
v 0.7 0.8 -0.2
v 1 0.2 0.1
v 1 0.2 -0.2
v 1 0.8 0.1
v 1 0.8 -0.2
v 1.3 0.8 0.1
v 1.3 0.8 -0.2
v 1.3 1 0.1
v 1.3 1 -0.2
v -1.2 0.8 0.1
v -1.2 1 0.1
v -0.8 1 0.1
v -0.8 1.1 0.1
v -0.7 1 0.1
v -0.7 1.1 0.1
v 0.2 0.7 0.1
v 0.2 0.8 0.1
v 0.3 0.5 0.1
v 0.3 0.7 0.1
v 0.3 0.8 0.1
v 0.4 0.4 0.1
v 0.4 0.5 0.1
v 0.4 0.7 0.1
v 0.6 0.4 0.1
v 0.6 0.5 0.1
v 0.6 0.8 0.1
v 0.7 0.5 0.1
v 0.7 0.8 0.1
v 0.8 0.2 0.1
v 0.8 0.8 0.1
v 1 0.2 0.1
v 1 0.8 0.1
v 1.3 0.8 0.1
v 1.3 1 0.1
v 0.4 0.5 0
v 0.4 0.7 0
v 0.5 0.5 0
v 0.5 0.7 0
v 0.5 0.8 0
v 0.6 0.7 0
v 0.6 0.8 0
v -0.8 1 -0.1
v -0.8 1.1 -0.1
v -0.7 1 -0.1
v -0.7 1.1 -0.1
v -0.8 1 0
v -0.8 1.1 0
v -0.7 1 0
v -0.7 1.1 0
v 0.4 0.5 -0.1
v 0.4 0.7 -0.1
v 0.5 0.5 -0.1
v 0.5 0.7 -0.1
v 0.5 0.8 -0.1
v 0.6 0.7 -0.1
v 0.6 0.8 -0.1
v -1.2 0.8 -0.2
v -1.2 1 -0.2
v -0.8 1 -0.2
v -0.8 1.1 -0.2
v -0.7 1 -0.2
v -0.7 1.1 -0.2
v 0.2 0.7 -0.2
v 0.2 0.8 -0.2
v 0.3 0.5 -0.2
v 0.3 0.7 -0.2
v 0.3 0.8 -0.2
v 0.4 0.4 -0.2
v 0.4 0.5 -0.2
v 0.4 0.7 -0.2
v 0.6 0.4 -0.2
v 0.6 0.5 -0.2
v 0.6 0.8 -0.2
v 0.7 0.5 -0.2
v 0.7 0.8 -0.2
v 0.8 0.2 -0.2
v 0.8 0.8 -0.2
v 1 0.2 -0.2
v 1 0.8 -0.2
v 1.3 0.8 -0.2
v 1.3 1 -0.2
v 0.8 0.2 0.1
v 1 0.2 0.1
v 0.8 0.2 -0.2
v 1 0.2 -0.2
v 0.4 0.4 0.1
v 0.6 0.4 0.1
v 0.4 0.4 -0.2
v 0.6 0.4 -0.2
v 0.3 0.5 0.1
v 0.4 0.5 0.1
v 0.6 0.5 0.1
v 0.7 0.5 0.1
v 0.3 0.5 -0.2
v 0.4 0.5 -0.2
v 0.6 0.5 -0.2
v 0.7 0.5 -0.2
v 0.2 0.7 0.1
v 0.3 0.7 0.1
v 0.5 0.7 0
v 0.6 0.7 0
v 0.5 0.7 -0.1
v 0.6 0.7 -0.1
v 0.2 0.7 -0.2
v 0.3 0.7 -0.2
v -1.2 0.8 0.1
v 0.2 0.8 0.1
v 0.3 0.8 0.1
v 0.6 0.8 0.1
v 0.7 0.8 0.1
v 0.8 0.8 0.1
v 1 0.8 0.1
v 1.3 0.8 0.1
v 0.5 0.8 0
v 0.6 0.8 0
v 0.5 0.8 -0.1
v 0.6 0.8 -0.1
v -1.2 0.8 -0.2
v 0.2 0.8 -0.2
v 0.3 0.8 -0.2
v 0.6 0.8 -0.2
v 0.7 0.8 -0.2
v 0.8 0.8 -0.2
v 1 0.8 -0.2
v 1.3 0.8 -0.2
v 0.4 0.5 0.1
v 0.6 0.5 0.1
v 0.4 0.5 0
v 0.5 0.5 0
v 0.4 0.5 -0.1
v 0.5 0.5 -0.1
v 0.4 0.5 -0.2
v 0.6 0.5 -0.2
v 0.3 0.7 0.1
v 0.4 0.7 0.1
v 0.4 0.7 0
v 0.5 0.7 0
v 0.4 0.7 -0.1
v 0.5 0.7 -0.1
v 0.3 0.7 -0.2
v 0.4 0.7 -0.2
v -1.2 1 0.1
v -0.8 1 0.1
v -0.7 1 0.1
v 1.3 1 0.1
v -0.8 1 0
v -0.7 1 0
v -0.8 1 -0.1
v -0.7 1 -0.1
v -1.2 1 -0.2
v -0.8 1 -0.2
v -0.7 1 -0.2
v 1.3 1 -0.2
v -0.8 1.1 0.1
v -0.7 1.1 0.1
v -0.8 1.1 0
v -0.7 1.1 0
v -0.8 1.1 -0.1
v -0.7 1.1 -0.1
v -0.8 1.1 -0.2
v -0.7 1.1 -0.2

# faces
f 3/1/1 2/1/1 1/1/1
f 4/1/1 2/1/1 3/1/1
f 9/1/1 6/1/1 5/1/1
f 10/1/1 6/1/1 9/1/1
f 11/1/1 8/1/1 7/1/1
f 12/1/1 8/1/1 11/1/1
f 15/1/1 14/1/1 13/1/1
f 16/1/1 14/1/1 15/1/1
f 19/1/1 18/1/1 17/1/1
f 20/1/1 18/1/1 19/1/1
f 23/1/1 22/1/1 21/1/1
f 24/1/1 22/1/1 23/1/1
f 27/2/1 26/2/1 25/2/1
f 28/2/1 26/2/1 27/2/1
f 31/1/1 30/1/1 29/1/1
f 32/1/1 30/1/1 31/1/1
f 33/1/1 31/1/1 29/1/1
f 34/1/1 31/1/1 33/1/1
f 35/1/1 30/1/1 32/1/1
f 36/1/1 30/1/1 35/1/1
f 39/1/1 38/1/1 37/1/1
f 40/1/1 38/1/1 39/1/1
f 41/1/2 42/1/2 45/1/2
f 45/1/2 42/1/2 46/1/2
f 43/1/2 44/1/2 47/1/2
f 47/1/2 44/1/2 48/1/2
f 49/1/2 50/1/2 51/1/2
f 51/1/2 50/1/2 52/1/2
f 53/1/2 54/1/2 57/1/2
f 57/1/2 54/1/2 58/1/2
f 55/1/2 56/1/2 59/1/2
f 59/1/2 56/1/2 60/1/2
f 61/2/2 62/2/2 63/2/2
f 63/2/2 62/2/2 64/2/2
f 65/1/2 66/1/2 67/1/2
f 67/1/2 66/1/2 68/1/2
f 69/1/2 70/1/2 71/1/2
f 71/1/2 70/1/2 72/1/2
f 73/1/2 74/1/2 75/1/2
f 75/1/2 74/1/2 76/1/2
f 77/1/2 78/1/2 79/1/2
f 79/1/2 78/1/2 80/1/2
f 83/1/3 82/1/3 81/1/3
f 85/1/3 83/1/3 81/1/3
f 85/1/3 84/1/3 83/1/3
f 86/1/3 84/1/3 85/1/3
f 88/1/3 85/1/3 81/1/3
f 90/1/3 88/1/3 87/1/3
f 91/1/3 85/1/3 88/1/3
f 91/1/3 88/1/3 90/1/3
f 93/1/3 90/1/3 89/1/3
f 94/1/3 90/1/3 93/1/3
f 95/1/3 93/1/3 92/1/3
f 96/1/3 93/1/3 95/1/3
f 97/1/3 85/1/3 91/1/3
f 98/1/3 97/1/3 96/1/3
f 99/1/3 85/1/3 97/1/3
f 99/1/3 97/1/3 98/1/3
f 101/1/3 85/1/3 99/1/3
f 102/1/3 101/1/3 100/1/3
f 103/1/3 85/1/3 101/1/3
f 103/1/3 101/1/3 102/1/3
f 104/1/3 85/1/3 103/1/3
f 105/1/3 85/1/3 104/1/3
f 108/2/3 107/2/3 106/2/3
f 109/2/3 107/2/3 108/2/3
f 111/2/3 110/2/3 109/2/3
f 112/2/3 110/2/3 111/2/3
f 115/1/3 114/1/3 113/1/3
f 116/1/3 114/1/3 115/1/3
f 117/1/4 118/1/4 119/1/4
f 119/1/4 118/1/4 120/1/4
f 121/2/4 122/2/4 123/2/4
f 123/2/4 122/2/4 124/2/4
f 124/2/4 125/2/4 126/2/4
f 126/2/4 125/2/4 127/2/4
f 128/1/4 129/1/4 130/1/4
f 128/1/4 130/1/4 132/1/4
f 130/1/4 131/1/4 132/1/4
f 132/1/4 131/1/4 133/1/4
f 128/1/4 132/1/4 135/1/4
f 134/1/4 135/1/4 137/1/4
f 135/1/4 132/1/4 138/1/4
f 137/1/4 135/1/4 138/1/4
f 136/1/4 137/1/4 140/1/4
f 140/1/4 137/1/4 141/1/4
f 139/1/4 140/1/4 142/1/4
f 142/1/4 140/1/4 143/1/4
f 138/1/4 132/1/4 144/1/4
f 143/1/4 144/1/4 145/1/4
f 144/1/4 132/1/4 146/1/4
f 145/1/4 144/1/4 146/1/4
f 146/1/4 132/1/4 148/1/4
f 147/1/4 148/1/4 149/1/4
f 148/1/4 132/1/4 150/1/4
f 149/1/4 148/1/4 150/1/4
f 150/1/4 132/1/4 151/1/4
f 151/1/4 132/1/4 152/1/4
f 155/1/5 154/1/5 153/1/5
f 156/1/5 154/1/5 155/1/5
f 159/1/5 158/1/5 157/1/5
f 160/1/5 158/1/5 159/1/5
f 165/1/5 162/1/5 161/1/5
f 166/1/5 162/1/5 165/1/5
f 167/1/5 164/1/5 163/1/5
f 168/1/5 164/1/5 167/1/5
f 173/2/5 172/2/5 171/2/5
f 174/2/5 172/2/5 173/2/5
f 175/1/5 170/1/5 169/1/5
f 176/1/5 170/1/5 175/1/5
f 185/1/5 180/1/5 179/1/5
f 186/1/5 180/1/5 185/1/5
f 187/1/5 185/1/5 179/1/5
f 189/1/5 178/1/5 177/1/5
f 190/1/5 178/1/5 189/1/5
f 191/1/5 188/1/5 187/1/5
f 191/1/5 187/1/5 179/1/5
f 192/1/5 188/1/5 191/1/5
f 193/1/5 182/1/5 181/1/5
f 194/1/5 182/1/5 193/1/5
f 195/1/5 184/1/5 183/1/5
f 196/1/5 184/1/5 195/1/5
f 197/1/6 198/1/6 199/1/6
f 199/1/6 198/1/6 200/1/6
f 200/1/6 198/1/6 202/1/6
f 201/1/6 202/1/6 203/1/6
f 202/1/6 198/1/6 204/1/6
f 203/1/6 202/1/6 204/1/6
f 205/1/6 206/1/6 207/1/6
f 205/1/6 207/1/6 209/1/6
f 207/2/6 208/2/6 209/2/6
f 209/2/6 208/2/6 210/2/6
f 205/1/6 209/1/6 211/1/6
f 211/1/6 209/1/6 212/1/6
f 213/1/6 214/1/6 217/1/6
f 215/1/6 216/1/6 218/1/6
f 213/1/6 217/1/6 219/1/6
f 217/1/6 218/1/6 219/1/6
f 218/1/6 216/1/6 220/1/6
f 219/1/6 218/1/6 220/1/6
f 213/1/6 219/1/6 221/1/6
f 221/1/6 219/1/6 222/1/6
f 220/1/6 216/1/6 223/1/6
f 223/1/6 216/1/6 224/1/6
f 225/1/6 226/1/6 227/1/6
f 227/1/6 226/1/6 228/1/6
f 229/1/6 230/1/6 231/1/6
f 231/1/6 230/1/6 232/1/6
